<svg xmlns="http://www.w3.org/2000/svg" width="24" height="24" viewBox="0 0 24 24" fill="none" stroke="currentColor" stroke-width="2" stroke-linecap="round" stroke-linejoin="round">
  <path d="M12 2a10 10 0 0 0-10 10c0 4.4 3.6 8 8 8h4a4 4 0 0 0 4-4 4 4 0 0 0-4-4h-2a2 2 0 0 1-2-2 2 2 0 0 1 2-2h4a4 4 0 0 1 4 4c0 2.2-1.8 4-4 4h-4a6 6 0 0 1-6-6 6 6 0 0 1 6-6h2a2 2 0 0 0 2-2 2 2 0 0 0-2-2h-4a10 10 0 0 0-10 10c0 5.5 4.5 10 10 10h4a4 4 0 0 0 4-4 4 4 0 0 0-4-4h-2a2 2 0 0 1-2-2 2 2 0 0 1 2-2h4a4 4 0 0 1 4 4c0 2.2-1.8 4-4 4h-4a6 6 0 0 1-6-6 6 6 0 0 1 6-6z"/>
</svg>